<svg  viewBox="0 0 1280 1280" height="100%" width="100%" xmlns="http://www.w3.org/2000/svg"><defs></defs><rect width="100px" height="100px" y="120" stroke="red" fill="none" /><rect width="2px" height="100px" y="120" stroke="black" fill="black" transform="translate(50,0)" /><rect width="100px" height="100px" x="120" y="120" stroke="red" fill="none" /><rect width="2px" height="100px" x="120" y="120" stroke="black" fill="black" transform="translate(50,0)" /><rect width="100px" height="100px" x="240" y="120" stroke="red" fill="none" /><rect width="2px" height="100px" x="240" y="120" stroke="black" fill="black" transform="translate(50,0)" /><rect width="100px" height="100px" x="360" y="120" stroke="red" fill="none" /><rect width="2px" height="100px" x="360" y="120" stroke="black" fill="black" transform="translate(50,0)" /><rect width="100px" height="100px" x="480" y="120" stroke="red" fill="none" /><rect width="2px" height="100px" x="480" y="120" stroke="black" fill="black" transform="translate(50,0)" /><rect width="100px" height="100px" x="600" y="120" stroke="red" fill="none" /><rect width="2px" height="100px" x="600" y="120" stroke="black" fill="black" transform="translate(50,0)" /><rect width="100px" height="100px" x="720" y="120" stroke="red" fill="none" /><rect width="2px" height="100px" x="720" y="120" stroke="black" fill="black" transform="translate(50,0)" /><rect width="100px" height="100px" x="840" y="120" stroke="red" fill="none" /><rect width="2px" height="100px" x="840" y="120" stroke="black" fill="black" transform="translate(50,0)" /><rect width="100px" height="100px" y="240" stroke="red" fill="none" /><rect width="2px" height="100px" y="240" stroke="black" fill="black" transform="translate(50,0)" /><rect width="100px" height="100px" x="120" y="240" stroke="red" fill="none" /><rect width="2px" height="100px" x="120" y="240" stroke="black" fill="black" transform="translate(50,0)" /><rect width="100px" height="100px" x="240" y="240" stroke="red" fill="none" /><rect width="2px" height="100px" x="240" y="240" stroke="black" fill="black" transform="translate(50,0)" /><rect width="100px" height="100px" x="360" y="240" stroke="red" fill="none" /><rect width="2px" height="100px" x="360" y="240" stroke="black" fill="black" transform="translate(50,0)" /><rect width="100px" height="100px" x="480" y="240" stroke="red" fill="none" /><rect width="2px" height="100px" x="480" y="240" stroke="black" fill="black" transform="translate(50,0)" /><rect width="100px" height="100px" x="600" y="240" stroke="red" fill="none" /><rect width="2px" height="100px" x="600" y="240" stroke="black" fill="black" transform="translate(50,0)" /><rect width="100px" height="100px" x="720" y="240" stroke="red" fill="none" /><rect width="2px" height="100px" x="720" y="240" stroke="black" fill="black" transform="translate(50,0)" /><rect width="100px" height="100px" x="840" y="240" stroke="red" fill="none" /><rect width="2px" height="100px" x="840" y="240" stroke="black" fill="black" transform="translate(50,0)" /><rect width="100px" height="100px" y="360" stroke="red" fill="none" /><rect width="2px" height="100px" y="360" stroke="black" fill="black" transform="translate(50,0)" /><rect width="100px" height="100px" x="120" y="360" stroke="red" fill="none" /><rect width="2px" height="100px" x="120" y="360" stroke="black" fill="black" transform="translate(50,0)" /><rect width="100px" height="100px" x="240" y="360" stroke="red" fill="none" /><rect width="2px" height="100px" x="240" y="360" stroke="black" fill="black" transform="translate(50,0)" /><rect width="100px" height="100px" x="360" y="360" stroke="red" fill="none" /><rect width="2px" height="100px" x="360" y="360" stroke="black" fill="black" transform="translate(50,0)" /><rect width="100px" height="100px" x="480" y="360" stroke="red" fill="none" /><rect width="2px" height="100px" x="480" y="360" stroke="black" fill="black" transform="translate(50,0)" /><rect width="100px" height="100px" x="600" y="360" stroke="red" fill="none" /><rect width="2px" height="100px" x="600" y="360" stroke="black" fill="black" transform="translate(50,0)" /><rect width="100px" height="100px" x="720" y="360" stroke="red" fill="none" /><rect width="2px" height="100px" x="720" y="360" stroke="black" fill="black" transform="translate(50,0)" /><rect width="100px" height="100px" x="840" y="360" stroke="red" fill="none" /><rect width="2px" height="100px" x="840" y="360" stroke="black" fill="black" transform="translate(50,0)" /><rect width="100px" height="100px" y="480" stroke="red" fill="none" /><rect width="2px" height="100px" y="480" stroke="black" fill="black" transform="translate(50,0)" /><rect width="100px" height="100px" x="120" y="480" stroke="red" fill="none" /><rect width="2px" height="100px" x="120" y="480" stroke="black" fill="black" transform="translate(50,0)" /><rect width="100px" height="100px" x="240" y="480" stroke="red" fill="none" /><rect width="2px" height="100px" x="240" y="480" stroke="black" fill="black" transform="translate(50,0)" /><rect width="100px" height="100px" x="360" y="480" stroke="red" fill="none" /><rect width="2px" height="100px" x="360" y="480" stroke="black" fill="black" transform="translate(50,0)" /><rect width="100px" height="100px" x="480" y="480" stroke="red" fill="none" /><rect width="2px" height="100px" x="480" y="480" stroke="black" fill="black" transform="translate(50,0)" /><rect width="100px" height="100px" x="600" y="480" stroke="red" fill="none" /><rect width="2px" height="100px" x="600" y="480" stroke="black" fill="black" transform="translate(50,0)" /><rect width="100px" height="100px" x="720" y="480" stroke="red" fill="none" /><rect width="2px" height="100px" x="720" y="480" stroke="black" fill="black" transform="translate(50,0)" /><rect width="100px" height="100px" x="840" y="480" stroke="red" fill="none" /><rect width="2px" height="100px" x="840" y="480" stroke="black" fill="black" transform="translate(50,0)" /><rect width="100px" height="100px" y="600" stroke="red" fill="none" /><rect width="2px" height="100px" y="600" stroke="black" fill="black" transform="translate(50,0)" /><rect width="100px" height="100px" x="120" y="600" stroke="red" fill="none" /><rect width="2px" height="100px" x="120" y="600" stroke="black" fill="black" transform="translate(50,0)" /><rect width="100px" height="100px" x="240" y="600" stroke="red" fill="none" /><rect width="2px" height="100px" x="240" y="600" stroke="black" fill="black" transform="translate(50,0)" /><rect width="100px" height="100px" x="360" y="600" stroke="red" fill="none" /><rect width="2px" height="100px" x="360" y="600" stroke="black" fill="black" transform="translate(50,0)" /><rect width="100px" height="100px" x="480" y="600" stroke="red" fill="none" /><rect width="2px" height="100px" x="480" y="600" stroke="black" fill="black" transform="translate(50,0)" /><rect width="100px" height="100px" x="600" y="600" stroke="red" fill="none" /><rect width="2px" height="100px" x="600" y="600" stroke="black" fill="black" transform="translate(50,0)" /><rect width="100px" height="100px" x="720" y="600" stroke="red" fill="none" /><rect width="2px" height="100px" x="720" y="600" stroke="black" fill="black" transform="translate(50,0)" /><rect width="100px" height="100px" x="840" y="600" stroke="red" fill="none" /><rect width="2px" height="100px" x="840" y="600" stroke="black" fill="black" transform="translate(50,0)" /><rect width="100px" height="100px" y="720" stroke="red" fill="none" /><rect width="2px" height="100px" y="720" stroke="black" fill="black" transform="translate(50,0)" /><rect width="100px" height="100px" x="120" y="720" stroke="red" fill="none" /><rect width="2px" height="100px" x="120" y="720" stroke="black" fill="black" transform="translate(50,0)" /><rect width="100px" height="100px" x="240" y="720" stroke="red" fill="none" /><rect width="2px" height="100px" x="240" y="720" stroke="black" fill="black" transform="translate(50,0)" /><rect width="100px" height="100px" x="360" y="720" stroke="red" fill="none" /><rect width="2px" height="100px" x="360" y="720" stroke="black" fill="black" transform="translate(50,0)" /><rect width="100px" height="100px" x="480" y="720" stroke="red" fill="none" /><rect width="2px" height="100px" x="480" y="720" stroke="black" fill="black" transform="translate(50,0)" /><rect width="100px" height="100px" x="600" y="720" stroke="red" fill="none" /><rect width="2px" height="100px" x="600" y="720" stroke="black" fill="black" transform="translate(50,0)" /><rect width="100px" height="100px" x="720" y="720" stroke="red" fill="none" /><rect width="2px" height="100px" x="720" y="720" stroke="black" fill="black" transform="translate(50,0)" /><rect width="100px" height="100px" x="840" y="720" stroke="red" fill="none" /><rect width="2px" height="100px" x="840" y="720" stroke="black" fill="black" transform="translate(50,0)" /><rect width="100px" height="100px" y="840" stroke="red" fill="none" /><rect width="2px" height="100px" y="840" stroke="black" fill="black" transform="translate(50,0)" /><rect width="100px" height="100px" x="120" y="840" stroke="red" fill="none" /><rect width="2px" height="100px" x="120" y="840" stroke="black" fill="black" transform="translate(50,0)" /><rect width="100px" height="100px" x="240" y="840" stroke="red" fill="none" /><rect width="2px" height="100px" x="240" y="840" stroke="black" fill="black" transform="translate(50,0)" /><rect width="100px" height="100px" x="360" y="840" stroke="red" fill="none" /><rect width="2px" height="100px" x="360" y="840" stroke="black" fill="black" transform="translate(50,0)" /><rect width="100px" height="100px" x="480" y="840" stroke="red" fill="none" /><rect width="2px" height="100px" x="480" y="840" stroke="black" fill="black" transform="translate(50,0)" /><rect width="100px" height="100px" x="600" y="840" stroke="red" fill="none" /><rect width="2px" height="100px" x="600" y="840" stroke="black" fill="black" transform="translate(50,0)" /><rect width="100px" height="100px" x="720" y="840" stroke="red" fill="none" /><rect width="2px" height="100px" x="720" y="840" stroke="black" fill="black" transform="translate(50,0)" /><rect width="100px" height="100px" x="840" y="840" stroke="red" fill="none" /><rect width="2px" height="100px" x="840" y="840" stroke="black" fill="black" transform="translate(50,0)" /><rect width="100px" height="100px" y="960" stroke="red" fill="none" /><rect width="2px" height="100px" y="960" stroke="black" fill="black" transform="translate(50,0)" /><rect width="100px" height="100px" x="120" y="960" stroke="red" fill="none" /><rect width="2px" height="100px" x="120" y="960" stroke="black" fill="black" transform="translate(50,0)" /><rect width="100px" height="100px" x="240" y="960" stroke="red" fill="none" /><rect width="2px" height="100px" x="240" y="960" stroke="black" fill="black" transform="translate(50,0)" /><rect width="100px" height="100px" x="360" y="960" stroke="red" fill="none" /><rect width="2px" height="100px" x="360" y="960" stroke="black" fill="black" transform="translate(50,0)" /><rect width="100px" height="100px" x="480" y="960" stroke="red" fill="none" /><rect width="2px" height="100px" x="480" y="960" stroke="black" fill="black" transform="translate(50,0)" /><rect width="100px" height="100px" x="600" y="960" stroke="red" fill="none" /><rect width="2px" height="100px" x="600" y="960" stroke="black" fill="black" transform="translate(50,0)" /><rect width="100px" height="100px" x="720" y="960" stroke="red" fill="none" /><rect width="2px" height="100px" x="720" y="960" stroke="black" fill="black" transform="translate(50,0)" /><rect width="100px" height="100px" x="840" y="960" stroke="red" fill="none" /><rect width="2px" height="100px" x="840" y="960" stroke="black" fill="black" transform="translate(50,0)" /></svg>